# xmcd
#
# Track frame offsets:
#  150
#  11359
#  19280
#  27481
#  36127
#  48913
#  58150
#  66671
#  76989
#  90238
#  102758
#  114397
#  126283
#  140459
#  157753
#  172892
#
# Disc length: 2485 seconds
#
# Revision: 0
# Processed by: cddbd v1.5.1PL2 Copyright (c) Steve Scherf et al.
# Submitted via: Collectorz.com_Music_Collector 6.10
#
DISCID=c609b310
DTITLE=Various Artist - Country Superstars
DYEAR=1900
DGENRE=Country
TTITLE0=Roger Miller - King of the Road
TTITLE1=Roger Miller - Dang Me
TTITLE2=Roger Miller - In the Summertime
TTITLE3=Roger Miller - England Swings
TTITLE4=Roger Miller - The Last Word In Lonesome Is Me
TTITLE5=Roger Miller - Chug-a-Lug
TTITLE6=Roger Miller - You Can't Rollerskate In A Buffalo Herd
TTITLE7=Roger Miller - Engine, Engine No. 9
TTITLE8=Kenny Rogers - Ruby, Don't Take Your Love To Town
TTITLE9=Kenny Rogers - Reuben James
TTITLE10=Kenny Rogers - Me And Bobby McGee
TTITLE11=Kenny Rogers - Elvira
TTITLE12=Kenny Rogers - Sunshine
TTITLE13=Kenny Rogers - Something's Burning
TTITLE14=Kenny Rogers - Tell It All, Brother
TTITLE15=Kenny Rogers - Shine On Ruby Mountain
EXTD=
EXTT0=
EXTT1=
EXTT2=
EXTT3=
EXTT4=
EXTT5=
EXTT6=
EXTT7=
EXTT8=
EXTT9=
EXTT10=
EXTT11=
EXTT12=
EXTT13=
EXTT14=
EXTT15=
PLAYORDER=
